<svg xmlns="http://www.w3.org/2000/svg" xmlns:xlink="http://www.w3.org/1999/xlink" width="206" height="30" viewBox="0 0 206 30"><defs><path id="a" d="M486.127 32.373h11.308v2.117h.062c1.116-1.557 2.696-2.398 4.368-2.398h.186v5.265c-.464-.031-.898-.062-1.146-.062-2.292 0-3.47 1.465-3.47 3.46v6.853h-4.833v-11.31h-6.475v5.61c0 .996.217 1.713 1.147 1.713.34 0 .96-.093 1.487-.343l1.208 3.584c-1.053.592-2.138 1.027-4.244 1.027-2.603 0-4.462-1.62-4.462-5.078 0-4.85-.002-10.087 0-15.33l4.864-.498zm-12.527.035h4.834v15.235H473.6zm-.014-7.81h4.843v4.742h-4.843zm-56.208.338a11.353 11.353 0 0 1 8.946 4.392l-3.855 3.348a6.28 6.28 0 0 0-5.09-2.623 6.275 6.275 0 0 0-4.449 1.852 6.345 6.345 0 0 0-1.842 4.474c0 3.492 2.816 6.324 6.29 6.324a6.274 6.274 0 0 0 5.058-2.577l3.866 3.35a11.358 11.358 0 0 1-8.924 4.345c-6.284 0-11.378-5.123-11.378-11.442a11.47 11.47 0 0 1 3.333-8.091 11.346 11.346 0 0 1 8.045-3.352m10.623 7.475h4.83v2.118h.06c1.114-1.557 2.694-2.396 4.366-2.396h.186v5.261c-.467-.03-.9-.063-1.147-.063-2.291 0-3.465 1.463-3.465 3.456v6.852H428zm25.34 7.443c0 .436-.064 1.151-.094 1.463h-10.323c.311 1.745 1.768 2.647 3.628 2.647 1.24-.03 2.51-.5 3.531-1.65l2.793 2.865c-1.273 1.588-3.38 2.742-6.821 2.742-4.587 0-7.938-3.178-7.938-7.913 0-4.607 3.227-7.875 7.814-7.875 4.28 0 7.41 3.204 7.41 7.721m-7.478-3.86c-1.486 0-2.601.907-2.912 2.44h5.67c-.308-1.5-1.3-2.44-2.758-2.44m15.892 11.8c-4.183 0-7.158-3.18-7.158-7.883 0-4.674 3.005-7.914 6.91-7.914 1.704 0 3.253.651 4.338 1.9h.03V24.58h4.865v22.932h-4.618V45.89h-.06c-.992 1.248-2.417 1.903-4.307 1.903m.996-4.301c1.893 0 3.32-1.403 3.32-3.582 0-2.09-1.367-3.617-3.32-3.617-1.832 0-3.26 1.434-3.26 3.617 0 2.148 1.368 3.582 3.26 3.582m61.894-19.084c2.014 0 3.564.811 4.09 1.185l-.898 3.52c-.651-.343-1.456-.561-1.89-.561-.868 0-1.425.437-1.425 1.652v2.212h2.88v3.925h-2.88v11.31h-4.865v-11.31a.012.012 0 0 1-.006.004v-6.33l.006.002c0-3.77 1.953-5.609 4.988-5.609m11.844 23.473c-4.901 0-8.218-3.273-8.218-7.883 0-4.644 3.317-7.914 8.218-7.914 4.774 0 8.184 3.206 8.184 7.914 0 4.673-3.41 7.883-8.184 7.883m-.005-4.292c1.827 0 3.283-1.499 3.283-3.587 0-2.121-1.393-3.59-3.283-3.59-1.953 0-3.314 1.5-3.314 3.59 0 2.028 1.391 3.587 3.315 3.587m-18.667-3.736c0 .436-.064 1.151-.094 1.463h-10.317c.31 1.745 1.766 2.647 3.627 2.647 1.238-.03 2.506-.5 3.528-1.65l2.792 2.865c-1.272 1.588-3.38 2.742-6.818 2.742-4.584 0-7.933-3.178-7.933-7.913 0-4.607 3.225-7.875 7.809-7.875 4.277 0 7.406 3.204 7.406 7.721m-7.469-3.86c-1.486 0-2.6.907-2.912 2.44h5.67c-.307-1.5-1.3-2.44-2.758-2.44m36.224-3.586h4.835v2.118h.06c1.115-1.558 2.698-2.397 4.37-2.397h.187v5.264c-.467-.03-.9-.064-1.148-.064-2.294 0-3.47 1.464-3.47 3.459v6.856h-4.834zm11.136-.049h4.835l.03 1.807c1.179-1.37 2.695-2.085 4.277-2.085 1.92 0 3.5.685 4.461 2.273 1.209-1.528 3.005-2.273 5.112-2.273 3.191 0 5.361 1.836 5.361 6.635v8.88h-4.834v-7.76c0-1.994-.527-3.427-2.2-3.427-1.393 0-2.54 1.155-2.54 3.552v7.635h-4.836v-7.76c0-1.994-.587-3.427-2.196-3.427-1.52 0-2.635 1.155-2.635 3.552v7.635h-4.835z"/><path id="b" d="M596.478 18.938a11.324 11.324 0 0 1 9.945.45L604.212 24a6.26 6.26 0 0 0-5.709-.368 6.304 6.304 0 0 0-3.347 3.48 6.357 6.357 0 0 0 .08 4.84 6.303 6.303 0 0 0 3.46 3.366 6.252 6.252 0 0 0 4.813-.08 6.316 6.316 0 0 0 3.621-4.389l4.872 1.527a11.422 11.422 0 0 1-6.467 7.556c-5.766 2.514-12.466-.146-14.967-5.944a11.5 11.5 0 0 1-.145-8.756 11.41 11.41 0 0 1 6.055-6.295m-5.568 25.13h19.81V48h-19.81z"/></defs><use fill="#009fe3" xlink:href="#a" transform="translate(-406 -18)"/><use fill="#66c5ed" xlink:href="#b" transform="translate(-406 -18)"/><g><use fill="#009fe3" xlink:href="#a" transform="translate(-406 -18)"/><use fill="#66c5ed" xlink:href="#b" transform="translate(-406 -18)"/></g></svg>