<?xml version="1.0" encoding="UTF-8"?>
<svg id="Ebene_1" xmlns="http://www.w3.org/2000/svg" version="1.1" viewBox="0 0 60.3 32.2">
  <!-- Generator: Adobe Illustrator 29.4.0, SVG Export Plug-In . SVG Version: 2.1.0 Build 152)  -->
  <defs>
    <style>
      .st0 {
        fill: #ffd400;
      }

      .st1 {
        fill: #32304e;
      }
    </style>
  </defs>
  <g id="Ebene_2">
    <g id="logo-limberger-platz">
      <g>
        <path class="st0" d="M21.3,27.6c-1,.6-2,1.2-3.1,1.7l-.8.4-.8.4-.8.4c-.3.1-.6.2-.8.3s-.6.2-.8.3-.6.2-.8.3-.6.2-.9.2-.6.1-.9.2-.6.1-.9.2-.6,0-.9.1h-.9c0,0-1.5,0-1.5,0h-.6c-.4,0-.8,0-1.1-.2h-.6c-.2-.1-.4-.2-.6-.2s-.4-.1-.5-.2-.4-.1-.5-.2l-.5-.2-.5-.3c-.2,0-.3-.2-.5-.3-.2,0-.3-.2-.5-.3l-.5-.3-.4-.4-.2-.2-.2-.2-.4-.4.4.4.2.2.2.2.4.3.5.3c.2.1.3.2.5.3.2,0,.3.2.5.2l.5.2.5.2c.2,0,.3.1.5.1s.3.1.5.1.4,0,.5.1h.5c.4,0,.7.1,1.1.2.4,0,.7,0,1.1,0h0,.9c0,0,.9-.2.9-.2.3,0,.6,0,.8-.2s.6-.1.8-.2.6-.1.8-.2.5-.2.8-.3.5-.2.8-.3.5-.2.8-.4.5-.2.8-.4.5-.3.8-.4.5-.3.8-.4l.7-.4c1-.6,1.9-1.2,2.9-1.9.3-.2.7-.1,1,.2s.1.7-.2,1h0Z"/>
        <path class="st0" d="M39,4.6c1-.6,2-1.2,3.1-1.7l.8-.4c.3-.1.5-.3.8-.4s.5-.2.8-.4.5-.2.8-.3.5-.2.8-.3.6-.2.8-.3.6-.2.9-.2.6-.1.9-.2.6-.1.9-.2.6,0,.9-.1h.9c0,0,1.5,0,1.5,0h.6c.4,0,.8,0,1.1.2h.5c.2.1.4.2.5.2s.4.1.5.2.4.1.5.2l.5.2.5.2c.2,0,.3.2.5.3.2,0,.3.2.5.3l.5.3.4.4.2.2.2.2.4.4-.4-.3-.2-.2-.2-.2-.4-.3-.5-.3c-.2-.1-.3-.2-.5-.3-.2,0-.3-.2-.5-.2l-.5-.2-.5-.2c-.2,0-.3-.1-.5-.2s-.3-.1-.5-.1-.4,0-.6,0h-.5c-.4,0-.7-.2-1.1-.2-.4,0-.7,0-1.1,0h-.8c0,0-.9.2-.9.2-.3,0-.6,0-.8.2s-.6.1-.8.2-.5.1-.8.2-.5.2-.8.3-.5.2-.8.3c-.3.1-.5.2-.8.3s-.5.2-.8.4-.5.3-.8.4-.5.3-.8.4l-.7.4c-1,.6-1.9,1.2-2.9,1.9-.3.2-.8.1-1-.2-.2-.3-.1-.8.2-1h0Z"/>
      </g>
      <polygon class="st1" points="0 8.1 0 15.1 5 15.1 5 13.5 1.8 13.5 1.8 8.1 0 8.1"/>
      <rect class="st1" x="6.6" y="8.1" width="1.8" height="7"/>
      <polygon class="st1" points="13.9 13.6 12.1 11.1 12.1 15.1 10.3 15.1 10.3 8.1 12 8.1 13.9 10.9 15.8 8.1 17.5 8.1 17.5 15.1 15.7 15.1 15.7 11.1 13.9 13.6 13.9 13.6"/>
      <g>
        <path class="st1" d="M21,13.6h1.2c.5,0,.8-.3.8-.7s-.3-.7-.8-.7h-1.2v1.4ZM22,10.8c.5,0,.8-.2.8-.6s-.3-.6-.8-.6h-1v1.3h1ZM24.8,13.1c0,1.3-.9,2-2.3,2h-3.2v-7h3c1.5,0,2.3.6,2.3,1.9,0,.6-.3,1.2-.9,1.5.7.2,1.2.9,1.1,1.6"/>
        <polygon class="st1" points="31.4 8.1 31.4 9.6 28.2 9.6 28.2 10.7 31.2 10.7 31.2 12.3 28.2 12.3 28.2 13.5 31.4 13.5 31.4 15.1 26.4 15.1 26.4 8.1 31.4 8.1"/>
        <path class="st1" d="M36.4,8c.6,0,1.2.1,1.8.5v1.8c-.5-.4-1-.6-1.6-.6-1,0-1.8.7-1.9,1.6,0,0,0,.2,0,.3,0,1,.6,1.8,1.6,1.9,0,0,.2,0,.3,0,.6,0,1.2-.2,1.6-.6v1.7c-.5.3-1.2.5-1.8.5-1.9.1-3.5-1.3-3.6-3.2,0-.1,0-.3,0-.4,0-1.9,1.4-3.5,3.2-3.6.1,0,.2,0,.3,0"/>
        <polygon class="st1" points="41.8 11.1 44 8.1 46.1 8.1 43.5 11.4 46.2 15.1 44.1 15.1 41.8 11.9 41.8 15.1 39.9 15.1 39.9 8.1 41.8 8.1 41.8 11.1"/>
        <polygon class="st1" points="52.6 8.1 52.6 9.6 49.4 9.6 49.4 10.7 52.3 10.7 52.3 12.3 49.4 12.3 49.4 13.5 52.6 13.5 52.6 15.1 47.6 15.1 47.6 8.1 52.6 8.1"/>
        <path class="st1" d="M56.1,11.3h1.1c.7,0,.9-.3.9-.8s-.3-.8-.9-.8h-1.1v1.7ZM56.1,12.8v2.3h-1.8v-7h3.1c1.3-.2,2.4.7,2.6,2,0,.1,0,.3,0,.4,0,.9-.5,1.8-1.4,2.1l1.6,2.5h-2l-1.5-2.3h-.7Z"/>
        <path class="st1" d="M2.8,18.8h-1v1.7h1c.6,0,1-.4,1-.9s-.3-.9-1-.9M1.8,22v2.1H0v-6.9h3c1.2-.1,2.4.8,2.5,2,0,.1,0,.3,0,.4,0,1.3-.9,2.3-2.1,2.4-.1,0-.2,0-.4,0h-1.2Z"/>
        <polygon class="st1" points="6.3 17.2 8.1 17.2 8.1 22.6 11.2 22.6 11.2 24.2 6.3 24.2 6.3 17.2"/>
        <path class="st1" d="M14.8,21.3h1.4l-.7-2-.7,2ZM16.5,17.2l2.6,6.9h-1.8l-.5-1.3h-2.5l-.5,1.3h-1.7l2.6-6.9h1.8Z"/>
        <polygon class="st1" points="19.1 17.2 25.2 17.2 25.2 18.8 23.1 18.8 23.1 24.2 21.3 24.2 21.3 18.8 19.1 18.8 19.1 17.2"/>
        <polygon class="st1" points="31.4 24.2 25.7 24.2 25.7 24.1 28.7 18.8 25.8 18.8 25.8 17.2 31.4 17.2 31.4 17.3 28.5 22.6 31.4 22.6 31.4 24.2"/>
        <polygon class="st1" points="37 17.2 37 17.8 33.3 17.8 33.3 20.3 36.7 20.3 36.7 20.9 33.3 20.9 33.3 23.6 37 23.6 37 24.2 32.8 24.2 32.8 17.2 37 17.2"/>
        <path class="st1" d="M38.1,22.9c.6.5,1.3.8,2.1.8,1,0,1.6-.5,1.6-1.3s-.4-1-1.2-1.3l-1-.4c-.7-.3-1.5-.7-1.5-1.8s1-1.8,2.1-1.8c.7,0,1.4.2,1.9.6v.6c-.5-.5-1.2-.7-1.9-.7-.9,0-1.5.4-1.5,1.2s.5,1,1.2,1.3l1.1.5c1,.4,1.5.9,1.5,1.8,0,1.1-1,1.9-2.1,1.8,0,0,0,0,0,0-.8,0-1.5-.2-2.1-.7v-.7Z"/>
        <path class="st1" d="M43.4,22.9c.6.5,1.3.8,2.1.8,1,0,1.6-.5,1.6-1.3s-.4-1-1.2-1.3l-1-.4c-.7-.3-1.5-.7-1.5-1.8s1-1.8,2.1-1.8c.7,0,1.4.2,1.9.6v.6c-.5-.5-1.2-.7-1.9-.7-.9,0-1.5.4-1.5,1.2s.5,1,1.2,1.3l1.1.5c1,.4,1.5.9,1.5,1.8,0,1.1-1,1.9-2.1,1.8,0,0,0,0,0,0-.8,0-1.5-.2-2.1-.7v-.7Z"/>
        <polygon class="st1" points="53.4 17.2 53.4 17.8 49.6 17.8 49.6 20.3 53 20.3 53 20.9 49.6 20.9 49.6 23.6 53.4 23.6 53.4 24.2 49.1 24.2 49.1 17.2 53.4 17.2"/>
        <polygon class="st1" points="60 24.2 59.7 24.2 55.4 18.1 55.4 24.2 54.9 24.2 54.9 17.2 55.4 17.2 59.5 23 59.5 17.2 60 17.2 60 24.2"/>
      </g>
    </g>
  </g>
  <metadata>
    <sfw xmlns="http://ns.adobe.com/SaveForWeb/1.0/">
      <slices/>
      <sliceSourceBounds x="0" y="0.02" width="60.33" height="32.23" bottomLeftOrigin="true"/>
    </sfw>
  </metadata>
</svg>