<svg xmlns="http://www.w3.org/2000/svg" width="60.32" height="32.25" viewBox="0 0 60.32 32.25">
  <title>logo-limberger-platz</title>
  <g id="Ebene_2" data-name="Ebene 2">
    <g id="logo-limberger-platz">
      <g>
        <path d="M21.26,27.62c-1,.6-2,1.2-3.06,1.74l-.79.4-.8.39-.81.36c-.27.12-.55.23-.82.34s-.56.21-.83.31-.56.19-.84.28-.57.16-.86.25-.58.14-.87.21-.59.11-.88.16-.59.07-.88.11l-.89.06H7.48l-.57,0c-.38,0-.75-.09-1.12-.15l-.55-.11c-.18,0-.37-.09-.55-.14s-.36-.11-.54-.17-.36-.12-.53-.19l-.52-.22L2.6,31c-.17-.08-.32-.19-.49-.28a4.4,4.4,0,0,1-.47-.31l-.45-.33-.42-.37L.56,29.5.38,29.3,0,28.88l.4.39.2.19.22.17.44.34.47.3a4.19,4.19,0,0,0,.48.27c.16.08.32.18.49.25l.51.21.52.18c.17.06.35.11.53.15s.35.1.53.13.36.08.54.1l.54.08c.36,0,.73.07,1.09.08a9.16,9.16,0,0,0,1.08,0H8l.85-.06.85-.11c.28-.05.56-.09.84-.16s.56-.12.83-.2.55-.15.82-.25.54-.18.81-.28.53-.2.79-.32.53-.22.78-.35.52-.24.77-.38.51-.26.76-.4.5-.27.75-.42l.74-.44c1-.6,1.93-1.22,2.9-1.89a.68.68,0,0,1,.78,1.13l0,0Z" fill="#ffd400"/>
        <path d="M39.05,4.63c1-.6,2-1.2,3.06-1.74l.79-.4c.26-.14.53-.26.8-.39s.54-.24.81-.36.55-.23.82-.34.55-.21.83-.31.56-.19.84-.28.57-.17.86-.25.58-.14.87-.21.59-.11.88-.16S50.2.1,50.5.07L51.39,0h1.45l.57,0c.38,0,.75.09,1.12.15l.55.11c.19,0,.37.09.55.14s.36.11.54.17.36.12.53.19l.52.22.5.25c.17.08.32.19.49.28a4.5,4.5,0,0,1,.47.3l.45.33.42.37.21.19.19.21.38.41L59.92,3l-.2-.19-.22-.17-.43-.34L58.6,2a4.19,4.19,0,0,0-.48-.27c-.17-.08-.32-.18-.49-.24l-.51-.21-.52-.18C56.43,1,56.26.95,56.08.9s-.35-.1-.53-.13S55.19.69,55,.67L54.46.59c-.36,0-.73-.07-1.09-.08a9.15,9.15,0,0,0-1.08,0h0l-.85.06L50.58.7c-.28.05-.56.09-.84.16s-.56.12-.83.21-.55.15-.82.25-.54.18-.81.28-.53.2-.79.32-.53.22-.78.35-.52.24-.77.38-.51.26-.76.4-.5.27-.75.42l-.74.44c-1,.6-1.93,1.22-2.9,1.89A.68.68,0,0,1,39,4.65l0,0Z" fill="#ffd400"/>
      </g>
      <polygon points="0.01 8.07 0.01 15.06 4.97 15.06 4.97 13.48 1.84 13.48 1.84 8.07 0.01 8.07" fill="#fff"/>
      <rect x="6.6" y="8.08" width="1.83" height="6.99" fill="#fff"/>
      <polygon points="13.85 13.56 12.05 11.06 12.05 15.06 10.26 15.06 10.26 8.07 11.96 8.07 13.87 10.92 15.79 8.07 17.48 8.07 17.48 15.06 15.68 15.06 15.68 11.06 13.89 13.56 13.85 13.56" fill="#fff"/>
      <g>
        <path d="M21.05,13.56h1.23c.51,0,.8-.27.8-.67s-.28-.68-.8-.68H21.05Zm1-2.72c.53,0,.82-.2.82-.64s-.29-.63-.82-.63h-1v1.26Zm2.74,2.27c0,1.26-.87,2-2.32,2H19.31v-7h3c1.46,0,2.33.65,2.33,1.9a1.51,1.51,0,0,1-.93,1.48,1.71,1.71,0,0,1,1.14,1.65" fill="#fff"/>
        <polygon points="31.43 8.07 31.43 9.65 28.23 9.65 28.23 10.74 31.16 10.74 31.16 12.28 28.23 12.28 28.23 13.48 31.43 13.48 31.43 15.06 26.43 15.06 26.43 8.07 31.43 8.07" fill="#fff"/>
        <path d="M36.44,8a3.15,3.15,0,0,1,1.78.48v1.78a2.6,2.6,0,0,0-1.63-.57,1.77,1.77,0,0,0-1.9,1.92,1.77,1.77,0,0,0,1.9,1.91,2.59,2.59,0,0,0,1.63-.56V14.7a3.14,3.14,0,0,1-1.78.48,3.41,3.41,0,0,1-3.59-3.61A3.41,3.41,0,0,1,36.44,8" fill="#fff"/>
        <polygon points="41.77 11.05 43.99 8.07 46.12 8.07 43.54 11.42 46.22 15.06 44.06 15.06 41.77 11.93 41.77 15.06 39.93 15.06 39.93 8.07 41.77 8.07 41.77 11.05" fill="#fff"/>
        <polygon points="52.59 8.07 52.59 9.65 49.39 9.65 49.39 10.74 52.32 10.74 52.32 12.28 49.39 12.28 49.39 13.48 52.59 13.48 52.59 15.06 47.59 15.06 47.59 8.07 52.59 8.07" fill="#fff"/>
        <path d="M56.1,11.3h1.14c.65,0,.94-.33.94-.84s-.3-.84-.94-.84H56.1Zm0,1.46v2.31H54.29v-7h3.14A2.29,2.29,0,0,1,60,10.45a2.1,2.1,0,0,1-1.39,2.11l1.64,2.5h-2l-1.46-2.31Z" fill="#fff"/>
        <path d="M2.84,18.76h-1v1.74h1c.65,0,.95-.35.95-.87s-.29-.87-.95-.87M1.79,22v2.15H0V17.23H3a2.27,2.27,0,0,1,2.51,2.39A2.27,2.27,0,0,1,3,22Z" fill="#fff"/>
        <polygon points="6.33 17.23 8.14 17.23 8.14 22.59 11.25 22.59 11.25 24.16 6.33 24.16 6.33 17.23" fill="#fff"/>
        <path d="M14.79,21.33h1.42l-.71-2Zm1.66-4.1,2.64,6.93H17.25l-.5-1.34H14.23l-.49,1.34H12l2.64-6.93Z" fill="#fff"/>
        <polygon points="19.15 17.23 25.24 17.23 25.24 18.79 23.1 18.79 23.1 24.16 21.28 24.16 21.28 18.79 19.15 18.79 19.15 17.23" fill="#fff"/>
        <polygon points="31.4 24.16 25.69 24.16 25.69 24.12 28.69 18.79 25.83 18.79 25.83 17.23 31.43 17.23 31.43 17.28 28.48 22.59 31.4 22.59 31.4 24.16" fill="#fff"/>
        <polygon points="37.05 17.23 37.05 17.77 33.32 17.77 33.32 20.33 36.7 20.33 36.7 20.86 33.32 20.86 33.32 23.63 37.05 23.63 37.05 24.16 32.75 24.16 32.75 17.23 37.05 17.23" fill="#fff"/>
        <path d="M38.11,22.91a3,3,0,0,0,2.14.82c1,0,1.62-.5,1.62-1.3s-.4-1-1.24-1.34l-1-.43c-.72-.3-1.5-.72-1.5-1.77s1-1.76,2.1-1.76a3.35,3.35,0,0,1,1.94.59v.64a2.87,2.87,0,0,0-1.93-.7c-.86,0-1.55.41-1.55,1.22s.47,1,1.21,1.26L41,20.6c1,.44,1.48.94,1.48,1.83a2,2,0,0,1-2.19,1.84,3.3,3.3,0,0,1-2.14-.69Z" fill="#fff"/>
        <path d="M43.37,22.91a3,3,0,0,0,2.14.82c1,0,1.62-.5,1.62-1.3s-.39-1-1.24-1.34l-1-.43c-.72-.3-1.5-.72-1.5-1.77s1-1.76,2.1-1.76a3.34,3.34,0,0,1,1.94.59v.64a2.87,2.87,0,0,0-1.93-.7c-.86,0-1.55.41-1.55,1.22s.47,1,1.21,1.26l1.07.45c1,.44,1.48.94,1.48,1.83a2,2,0,0,1-2.19,1.84,3.31,3.31,0,0,1-2.14-.69Z" fill="#fff"/>
        <polygon points="53.37 17.23 53.37 17.77 49.64 17.77 49.64 20.33 53.02 20.33 53.02 20.86 49.64 20.86 49.64 23.63 53.37 23.63 53.37 24.16 49.07 24.16 49.07 17.23 53.37 17.23" fill="#fff"/>
        <polygon points="60.05 24.16 59.66 24.16 55.43 18.15 55.43 24.16 54.88 24.16 54.88 17.23 55.43 17.23 59.49 23.01 59.49 17.23 60.05 17.23 60.05 24.16" fill="#fff"/>
      </g>
    </g>
  </g>
</svg>
