<svg version="1.1" viewBox="0 0 270 36" xmlns="http://www.w3.org/2000/svg">
 <path d="m166 30.8h1.06v-1.48h-2.67v0.462c-0.532-0.392-1.23-0.615-2.01-0.615-1.86 0-3.34 1.54-3.34 3.47 0 1.92 1.48 3.45 3.34 3.45 0.783 0 1.48-0.224 2.01-0.615v0.462h2.67v-1.48h-1.06zm-3.38 3.89c-1.15 0-1.96-0.965-1.96-2.06 0-1.1 0.811-2.07 1.96-2.07 0.615 0 1.2 0.21 1.78 0.769v2.59c-0.574 0.56-1.16 0.769-1.78 0.769zm14.2-0.238h-1.06v-2.17c0-1.92-1.16-3.18-2.9-3.18-0.797 0-1.47 0.28-2.04 0.755v-0.545h-2.67v1.48h1.05v3.65h-1.05v1.48h3.72v-1.48h-1.05v-2.92c0.504-0.615 1.13-0.951 1.71-0.951 1.01 0 1.62 0.643 1.62 1.8v2.07h-1.06v1.48h3.73zm12.5 0h-1.06v-8.45h-2.67v1.48h1.06v2.29c-0.532-0.392-1.23-0.615-2.01-0.615-1.86 0-3.34 1.54-3.34 3.45 0 1.93 1.48 3.47 3.34 3.47 0.783 0 1.48-0.224 2.01-0.615v0.462h2.67zm-4.45 0.238c-1.15 0-1.96-0.965-1.96-2.07 0-1.09 0.811-2.06 1.96-2.06 0.615 0 1.2 0.21 1.78 0.825v2.53c-0.574 0.56-1.16 0.769-1.78 0.769zm11.8-2.17c0-1.99-1.37-3.36-3.3-3.36-2 0-3.45 1.5-3.45 3.47 0 1.96 1.41 3.51 3.52 3.51 1.52 0 2.74-0.825 3.12-2.04h-1.72c-0.238 0.406-0.713 0.615-1.34 0.615-1.13 0-1.75-0.63-1.96-1.45h5.11c0.0281-0.252 0.0281-0.504 0.0281-0.741zm-3.26-2.08c0.993 0 1.58 0.657 1.72 1.55h-3.59c0.21-0.853 0.839-1.55 1.87-1.55zm9.47-1.23c-1.15 0-2.04 0.35-2.7 0.825v-0.713h-2.67v1.48h1.05v3.65h-1.05v1.48h4.31v-1.48h-1.64v-3.12c0.629-0.224 1.52-0.434 2.7-0.476zm13.8-1.3h1.19v-1.48h-4.07v1.48h1.2v2.62h-4.73v-2.62h1.19v-1.48h-4.07v1.48h1.2v6.55h-1.2v1.48h4.07v-1.48h-1.19v-2.42h4.73v2.42h-1.2v1.48h4.07v-1.48h-1.19zm8.85 2.9h1.06v-1.48h-2.67v0.462c-0.532-0.392-1.23-0.615-2.01-0.615-1.86 0-3.34 1.54-3.34 3.47 0 1.92 1.48 3.45 3.34 3.45 0.783 0 1.48-0.224 2.01-0.615v0.462h2.67v-1.48h-1.06zm-3.38 3.89c-1.15 0-1.96-0.965-1.96-2.06 0-1.1 0.811-2.07 1.96-2.07 0.615 0 1.2 0.21 1.78 0.769v2.59c-0.574 0.56-1.16 0.769-1.78 0.769z" />
 <path d="m235 30.8v-1.48h-3.65v1.48h0.965l-1.5 3.25-1.5-3.25h0.951v-1.48h-3.64v1.48h0.853l2.55 5.13h1.57l2.53-5.13zm7.12 1.72c0-1.99-1.37-3.36-3.3-3.36-2 0-3.45 1.5-3.45 3.47 0 1.96 1.41 3.51 3.52 3.51 1.52 0 2.74-0.825 3.12-2.04h-1.72c-0.238 0.406-0.713 0.615-1.34 0.615-1.13 0-1.75-0.63-1.96-1.45h5.11c0.0281-0.252 0.0281-0.504 0.0281-0.741zm-3.26-2.08c0.993 0 1.58 0.657 1.72 1.55h-3.59c0.21-0.853 0.839-1.55 1.87-1.55zm7.55 4.01h-1.05v-8.45h-2.67v1.48h1.05v6.97h-1.05v1.48h3.72z" />
 <path d="m7.29 8.57c-2.2-0.362-3.34-1.08-3.34-2.61 0-1.64 1.28-2.64 3.59-2.64 2.86 0 4.31 1.45 5.23 3.11h3.06v-5.59h-2.86v1.64c-1.28-1.39-3.2-2.06-5.56-2.06-4.31 0-6.95 2.25-6.95 5.7 0 2.86 1.81 4.81 5.59 5.39l3.64 0.612c2.28 0.362 2.98 1.47 2.98 2.56 0 1.45-1.42 2.39-3.56 2.39-3.06 0-4.39-1.28-5.98-3.5h-3.11v6.17h3.11v-1.95c1.28 1.42 3.2 2.34 6.06 2.34 4.31 0 6.9-2.14 6.9-5.62 0-3.14-2.14-4.87-5.87-5.48zm21 8.29c-0.667 0.195-1.47 0.334-2.2 0.334-1.58 0-2.53-0.751-2.53-2.5v-5.14h4.64v-2.95h-4.64v-4.09h-3.2v4.09h-3.23v2.95h3.23v5.14c0 3.39 1.97 5.48 5.09 5.48 1.14 0 1.84-0.111 3.28-0.556zm15.2-7.31h2.11v-2.95h-5.31v0.918c-1.06-0.779-2.45-1.22-4-1.22-3.7 0-6.65 3.06-6.65 6.9 0 3.81 2.95 6.87 6.65 6.87 1.56 0 2.95-0.445 4-1.22v0.918h5.31v-2.95h-2.11zm-6.73 7.73c-2.28 0-3.89-1.92-3.89-4.09 0-2.2 1.61-4.12 3.89-4.12 1.22 0 2.39 0.417 3.53 1.53v5.14c-1.14 1.11-2.31 1.53-3.53 1.53zm26.5-0.473h-2.11v-16.8h-5.31v2.95h2.11v4.56c-1.06-0.779-2.45-1.22-4-1.22-3.7 0-6.65 3.06-6.65 6.87 0 3.84 2.95 6.9 6.65 6.9 1.56 0 2.95-0.445 4-1.22v0.918h5.31zm-8.84 0.473c-2.28 0-3.89-1.92-3.89-4.12 0-2.17 1.61-4.09 3.89-4.09 1.22 0 2.39 0.417 3.53 1.64v5.03c-1.14 1.11-2.31 1.53-3.53 1.53zm20.3-0.417c-0.667 0.195-1.47 0.334-2.2 0.334-1.58 0-2.53-0.751-2.53-2.5v-5.14h4.64v-2.95h-4.64v-4.09h-3.2v4.09h-3.23v2.95h3.23v5.14c0 3.39 1.97 5.48 5.09 5.48 1.14 0 1.84-0.111 3.28-0.556zm23.5-6.9c1.75-0.584 2.81-2.25 2.81-4.28 0-2.92-2.31-4.84-6.28-4.84h-10.3v2.95h2.39v13h-2.39v2.95h10.6c4.2 0 6.81-2.06 6.81-5.23 0-2.14-1.17-4.06-3.7-4.56zm-8.01-6.17h4.31c2.34 0 3.37 0.89 3.37 2.42 0 1.58-1.06 2.61-3.37 2.61h-4.31zm0 13v-4.98h5.09c2.2 0 3.34 0.807 3.34 2.34 0 1.47-1.17 2.64-3.62 2.64zm24.4-10.4c-2.28 0-4.06 0.695-5.37 1.64v-1.42h-5.31v2.95h2.09v7.26h-2.09v2.95h8.56v-2.95h-3.25v-6.2c1.25-0.445 3.03-0.862 5.37-0.946zm14.7 3.17h2.11v-2.95h-5.31v0.918c-1.06-0.779-2.45-1.22-4-1.22-3.7 0-6.65 3.06-6.65 6.9 0 3.81 2.95 6.87 6.65 6.87 1.56 0 2.95-0.445 4-1.22v0.918h5.31v-2.95h-2.11zm-6.73 7.73c-2.28 0-3.89-1.92-3.89-4.09 0-2.2 1.61-4.12 3.89-4.12 1.22 0 2.39 0.417 3.53 1.53v5.14c-1.14 1.11-2.31 1.53-3.53 1.53zm28.2-0.473h-2.11v-4.31c0-3.81-2.31-6.31-5.76-6.31-1.58 0-2.92 0.556-4.06 1.5v-1.08h-5.31v2.95h2.09v7.26h-2.09v2.95h7.4v-2.95h-2.09v-5.81c1-1.22 2.25-1.89 3.39-1.89 2 0 3.23 1.28 3.23 3.59v4.12h-2.11v2.95h7.42zm17 0h-2.11v-16.8h-5.31v2.95h2.11v4.56c-1.06-0.779-2.45-1.22-4-1.22-3.7 0-6.65 3.06-6.65 6.87 0 3.84 2.95 6.9 6.65 6.9 1.56 0 2.95-0.445 4-1.22v0.918h5.31zm-8.84 0.473c-2.28 0-3.89-1.92-3.89-4.12 0-2.17 1.61-4.09 3.89-4.09 1.22 0 2.39 0.417 3.53 1.64v5.03c-1.14 1.11-2.31 1.53-3.53 1.53zm23.6-4.31c0-3.95-2.73-6.67-6.56-6.67-3.98 0-6.87 2.98-6.87 6.9 0 3.89 2.81 6.98 7.01 6.98 3.03 0 5.45-1.64 6.2-4.06h-3.42c-0.473 0.806-1.42 1.22-2.67 1.22-2.25 0-3.48-1.25-3.89-2.89h10.1c0.0557-0.501 0.0557-1 0.0557-1.47zm-6.48-4.14c1.97 0 3.14 1.31 3.42 3.09h-7.15c0.417-1.7 1.67-3.09 3.73-3.09zm25.4 7.98h-2.11v-4.31c0-3.81-2.31-6.31-5.76-6.31-1.58 0-2.92 0.556-4.06 1.5v-1.08h-5.31v2.95h2.09v7.26h-2.09v2.95h7.4v-2.95h-2.09v-5.81c1-1.22 2.25-1.89 3.39-1.89 2 0 3.23 1.28 3.23 3.59v4.12h-2.11v2.95h7.42zm10.4-10.5c-1.58 0-2.95 0.445-4 1.22v-7.51h-5.31v2.95h2.09v13.8h-2.09v2.95h5.31v-0.918c1.06 0.779 2.42 1.22 4 1.22 3.67 0 6.62-3.06 6.62-6.9 0-3.81-2.95-6.87-6.62-6.87zm-0.473 11c-1.25 0-2.42-0.417-3.53-1.53v-5.14c1.11-1.11 2.28-1.53 3.53-1.53 2.28 0 3.89 1.92 3.89 4.09 0 2.2-1.61 4.12-3.89 4.12zm25.1-0.473h-2.09v-10.2h-5.31v2.95h2.09v5.78c-1 1.25-2.25 1.92-3.39 1.92-2 0-3.23-1.31-3.23-3.59v-7.06h-5.31v2.95h2.11v4.31c0 3.81 2.31 6.31 5.76 6.31 1.58 0 2.92-0.556 4.06-1.5v1.08h5.31zm11.9-10.4c-2.28 0-4.06 0.695-5.37 1.64v-1.42h-5.31v2.95h2.09v7.26h-2.09v2.95h8.56v-2.95h-3.25v-6.2c1.25-0.445 3.03-0.862 5.37-0.946zm16.7 3.17v-2.95h-5.31v1c-1.08-0.807-2.5-1.31-4.06-1.31-3.84 0-6.7 3.06-6.7 6.9 0 3.81 2.86 6.87 6.7 6.87 1.56 0 2.98-0.501 4.06-1.31v1.81c0 2.11-1.58 3.36-3.73 3.36-1.95 0-3.28-1.03-3.5-2.56h-3.25c0.334 3.2 3.06 5.48 6.81 5.48 3.95 0 6.9-2.45 6.9-6.28v-11zm-8.9 7.73c-2.42 0-3.95-1.92-3.95-4.09 0-2.2 1.53-4.12 3.95-4.12 1.33 0 2.67 0.584 3.59 2v4.2c-0.918 1.42-2.25 2-3.59 2z" />
 <path d="m266 19.7h3.85v-3.85h-3.85z" />
 <path d="m80.9 27.9v-1.48h-4.4v1.48h1.63l-1.77 5.55-2.38-7.03h-1.35l-2.38 7.01-1.74-5.54h1.61v-1.48h-4.41v1.48h1.04l2.66 8.04h1.64l2.25-6.51 2.24 6.51h1.64l2.66-8.04z" fill="#1963a4" />
 <path d="m82.7 28.2c0.598 0 1.1-0.459 1.1-1.06 0-0.612-0.501-1.07-1.1-1.07s-1.09 0.459-1.09 1.07c0 0.598 0.487 1.06 1.09 1.06zm1.86 6.22h-1.04v-5.11h-2.66v1.48h1.04v3.63h-1.04v1.48h3.7z" fill="#1963a4" />
 <path d="m88.8 34.4h-1.04v-8.41h-2.66v1.48h1.04v6.93h-1.04v1.48h3.7z" fill="#1963a4" />
 <path d="m93.3 34.4h-1.04v-8.41h-2.66v1.48h1.04v6.93h-1.04v1.48h3.7z" fill="#1963a4" />
 <path d="m103 34.4h-1.42l-2.05-2.53 1.36-1.1h1.46v-1.48h-3.37v1.34l-2.16 1.71v-6.35h-2.66v1.48h1.04v6.93h-1.04v1.48h3.83v-1.48h-1.17v-0.362l1.49-1.2 1.61 2v1.03h3.06z" fill="#1963a4" />
 <path d="m107 29.2c-2.02 0-3.58 1.46-3.58 3.45 0 2 1.56 3.49 3.58 3.49 1.99 0 3.55-1.49 3.55-3.49 0-1.99-1.56-3.45-3.55-3.45zm0 5.48c-1.14 0-1.96-0.905-1.96-2.03 0-1.11 0.821-1.99 1.96-1.99 1.11 0 1.93 0.877 1.93 1.99 0 1.13-0.821 2.03-1.93 2.03z" fill="#1963a4" />
 <path d="m124 34.4h-1.04v-2.16c0-1.91-1.25-3.16-2.87-3.16-1.09 0-1.78 0.334-2.48 1-0.515-0.64-1.28-1-2.14-1-0.835 0-1.32 0.251-1.77 0.668v-0.459h-2.66v1.48h1.04v3.63h-1.04v1.48h3.7v-1.48h-1.04v-2.98c0.445-0.612 0.96-0.877 1.43-0.877 1 0 1.59 0.64 1.59 1.8v2.06h-1.06v1.48h3.72v-1.48h-1.06v-2.16c0-0.278-0.0278-0.543-0.0835-0.793 0.459-0.668 1.02-0.905 1.52-0.905 1.02 0 1.59 0.64 1.59 1.8v2.06h-1.04v1.48h3.7z" fill="#1963a4" />
 <path d="m138 34.4h-1.04v-2.16c0-1.91-1.25-3.16-2.87-3.16-1.09 0-1.78 0.334-2.48 1-0.515-0.64-1.28-1-2.14-1-0.835 0-1.32 0.251-1.77 0.668v-0.459h-2.66v1.48h1.04v3.63h-1.04v1.48h3.7v-1.48h-1.04v-2.98c0.445-0.612 0.96-0.877 1.43-0.877 1 0 1.59 0.64 1.59 1.8v2.06h-1.06v1.48h3.72v-1.48h-1.06v-2.16c0-0.278-0.0278-0.543-0.0835-0.793 0.459-0.668 1.02-0.905 1.52-0.905 1.02 0 1.59 0.64 1.59 1.8v2.06h-1.04v1.48h3.7z" fill="#1963a4" />
 <path d="m145 32.5c0-1.98-1.36-3.34-3.28-3.34-1.99 0-3.44 1.49-3.44 3.45 0 1.95 1.41 3.49 3.51 3.49 1.52 0 2.73-0.821 3.1-2.03h-1.71c-0.237 0.404-0.71 0.612-1.34 0.612-1.13 0-1.74-0.626-1.95-1.45h5.08c0.0278-0.251 0.0278-0.501 0.0278-0.738zm-3.24-2.07c0.988 0 1.57 0.654 1.71 1.54h-3.58c0.209-0.849 0.835-1.54 1.86-1.54z" fill="#1963a4" />
 <path d="m154 34.4h-1.06v-2.16c0-1.91-1.16-3.16-2.88-3.16-0.793 0-1.46 0.278-2.03 0.752v-0.543h-2.66v1.48h1.04v3.63h-1.04v1.48h3.7v-1.48h-1.04v-2.91c0.501-0.612 1.13-0.946 1.7-0.946 1 0 1.61 0.64 1.61 1.8v2.06h-1.06v1.48h3.72z" fill="#1963a4" />
</svg>
